<mxfile host="app.diagrams.net" modified="2020-12-22T16:07:28.645Z" agent="5.0 (Windows NT 10.0; Win64; x64) AppleWebKit/537.36 (KHTML, like Gecko) Chrome/87.0.4280.88 Safari/537.36" etag="EZbHmr_9j7k_9lAnPS7N" version="14.1.1" type="github">
  <diagram id="0QWj3oz8TRlZrKF3oh--" name="第 1 页">
    <mxGraphModel dx="1038" dy="524" grid="1" gridSize="10" guides="1" tooltips="1" connect="1" arrows="1" fold="1" page="1" pageScale="1" pageWidth="827" pageHeight="1169" math="0" shadow="0">
      <root>
        <mxCell id="0" />
        <mxCell id="1" parent="0" />
        <mxCell id="cXKGVg0-k396TDlxdA4g-1" value="&lt;div style=&quot;font-size: 15px;&quot;&gt;`ifndef MY_SEQUENCER__SV&lt;/div&gt;&lt;div style=&quot;font-size: 15px;&quot;&gt;`define MY_SEQUENCER__SV&lt;/div&gt;&lt;div style=&quot;font-size: 15px;&quot;&gt;&lt;br style=&quot;font-size: 15px;&quot;&gt;&lt;/div&gt;&lt;div style=&quot;font-size: 15px;&quot;&gt;class my_sequencer extends uvm_sequencer #(my_transaction);&lt;/div&gt;&lt;div style=&quot;font-size: 15px;&quot;&gt;&amp;nbsp; &amp;nbsp;&lt;/div&gt;&lt;div style=&quot;font-size: 15px;&quot;&gt;&amp;nbsp; &amp;nbsp;function new(string name, uvm_component parent);&lt;/div&gt;&lt;div style=&quot;font-size: 15px;&quot;&gt;&amp;nbsp; &amp;nbsp; &amp;nbsp; super.new(name, parent);&lt;/div&gt;&lt;div style=&quot;font-size: 15px;&quot;&gt;&amp;nbsp; &amp;nbsp;endfunction&amp;nbsp;&lt;/div&gt;&lt;div style=&quot;font-size: 15px;&quot;&gt;&amp;nbsp; &amp;nbsp;&lt;/div&gt;&lt;div style=&quot;font-size: 15px;&quot;&gt;&amp;nbsp; &amp;nbsp;`uvm_component_utils(my_sequencer)&lt;/div&gt;&lt;div style=&quot;font-size: 15px;&quot;&gt;endclass&lt;/div&gt;&lt;div style=&quot;font-size: 15px;&quot;&gt;&lt;br style=&quot;font-size: 15px;&quot;&gt;&lt;/div&gt;&lt;div style=&quot;font-size: 15px;&quot;&gt;`endif&lt;/div&gt;" style="rounded=0;whiteSpace=wrap;html=1;align=left;fontSize=15;" vertex="1" parent="1">
          <mxGeometry x="30" y="220" width="780" height="270" as="geometry" />
        </mxCell>
      </root>
    </mxGraphModel>
  </diagram>
</mxfile>
